<?xml version="1.0" encoding="UTF-8"?>
<svg id="Logo" xmlns="http://www.w3.org/2000/svg" xmlns:xlink="http://www.w3.org/1999/xlink" version="1.1" viewBox="0 0 96 26">
  <!-- Generator: Adobe Illustrator 29.7.1, SVG Export Plug-In . SVG Version: 2.1.1 Build 8)  -->
  <defs>
    <style>
      .st0 {
        fill: url(#linear-gradient2);
      }

      .st1 {
        fill: url(#linear-gradient1);
      }

      .st2 {
        fill: url(#linear-gradient);
      }
    </style>
    <linearGradient id="linear-gradient" x1="48.0702" y1=".5319" x2="48.0702" y2="29.1868" gradientTransform="translate(0 27) scale(1 -1)" gradientUnits="userSpaceOnUse">
      <stop offset=".0438" stop-color="#ff2500"/>
      <stop offset=".0498" stop-color="#fa2400"/>
      <stop offset=".1177" stop-color="#c6220a"/>
      <stop offset=".1902" stop-color="#972012"/>
      <stop offset=".2655" stop-color="#6e1f19"/>
      <stop offset=".3445" stop-color="#4c1d1f"/>
      <stop offset=".4282" stop-color="#301c24"/>
      <stop offset=".518" stop-color="#1a1c28"/>
      <stop offset=".6171" stop-color="#0b1b2a"/>
      <stop offset=".7326" stop-color="#021b2c"/>
      <stop offset=".9039" stop-color="#001b2d"/>
    </linearGradient>
    <linearGradient id="linear-gradient1" x1="48" y1="3.3455" x2="48" y2="24.5858" gradientTransform="translate(0 27) scale(1 -1)" gradientUnits="userSpaceOnUse">
      <stop offset="0" stop-color="#dceaf3"/>
      <stop offset=".7105" stop-color="#edf2f5"/>
      <stop offset="1" stop-color="#f6f6f7"/>
    </linearGradient>
    <linearGradient id="linear-gradient2" x1="47.9977" y1="15.3395" x2="47.9977" y2="2.4179" gradientTransform="translate(0 27) scale(1 -1)" gradientUnits="userSpaceOnUse">
      <stop offset="0" stop-color="#bad1e2"/>
      <stop offset=".3638" stop-color="#c1bfd6"/>
      <stop offset="1" stop-color="#d298bc"/>
    </linearGradient>
  </defs>
  <path class="st2" d="M14.3527,5.102C12.1048.9798,7.4074.9996,4.1264.7241c-1.0635-.1422-1.4215-.3746-1.8014-.5826-.2281-.1248-.4622-.202-.6677.0313-.2337.2653.1081.8978.5034,1.5103.8524,1.1206.7374,3.1749.8182,5.8452.0212,2.2725.0483,13.6608-.3852,14.7969-.2504.6562-.6715.9342-1.4998,1.4613-.4715.3106-.2512,1.0191-.2512,1.0191,0,0,.4301.4286.7122.6878.1226.1043.2281.2275.3623.3178.2172.1255.49.1097.731.0576.4049-.1043.8047-.2425,1.2277-.2785,1.0872-.1201,2.1826.0045,3.2737.022,1.3008.0267,2.6329-.0978,3.8417-.6254.5822-.243,1.2053-.6333,1.7291-1.0372.7979-.6016,1.5114-1.3108,2.0949-2.1196.8022-1.1051,1.326-2.3884,1.6158-3.7171.038-.1723.0711-.344.1011-.5137,0-.0003,0-.0008.0001-.0011.2478-1.5466.3337-3.1175.3263-4.6826-.0193-3.217-1.0261-5.5057-2.5059-7.8136h0ZM7.8702,21.1273c-.0029-.0877-.0061-.1749-.0089-.2629v-.0005c-.1403-4.948-.0327-9.9112.1796-14.8535.0046-.0918.0074-.1812.0245-.2654v-.0003c.0151-.0695.04-.1292.0945-.173h0c.0842-.0631.1957-.061.2965-.0477.0401.002.3345.0649.4547.1034,1.0757.3118,2.0852.9806,2.8183,1.8745.4643,1.0069.8019,2.2945.8495,3.948.1739,6.0638-1.7013,8.3878-4.7089,9.6774h.0002ZM94.0949,22.6852c-.2451-.582-.3783-1.1479-.5367-1.8611-.4752-2.1394-.9445-5.0846-1.552-8.7224-1.072-6.4195-.8394-9.0856-.737-9.7957.0989-.6827.5362-1.0361.7369-1.4318.2378-.4687.0631-.6969-.1474-.758-.2375-.0689-.5884.2382-1.2949.4895-.8063.2868-2.0824.572-3.7689.758-1.6846.1857-2.5528.0633-3.0741,0-.4437-.0541-.6204-.0986-.8257.1123l-.6047,1.0487-.3261.6246c-.0056.0306-.0184.0554-.0195.0886.0214.1753.1078.3202.1821.4864.0975.1916.1474.3593.1659.5708.0212.4557-.0357.8718-.0896,1.3828-.0431.3714-.152,1.1983-.2363,1.8094-.4641,3.3267-.9857,6.7536-1.6141,10.0713-.2894,1.5015-.5932,2.9065-.9933,4.2969-.2276.7541-.4549,1.514-.823,2.1549-.0817.135-.2391.2821-.2.4549.0607.3488.483.3336.7647.3408.5256-.0069,1.0567-.0419,1.5872-.0044.534.0322,1.0699.1015,1.596.1726.4056.0478.8226.107,1.2262.0593.0551-.0035.1084-.0219.1585-.0368.0287-.013.0424-.0302.0657-.0445,0,0,.8377-1.024.8147-1.0127.1348-.1974.0921-.5628.0333-1.1679-.0653-.6688-.164-1.5943-.1379-2.8094,1.2225.5636,3.0202.4504,3.9985-.5293.1777,1.4973.0476,3.1454-.0306,4.6379-.0162.28-.046.5318-.066.7748-.0063.1347-.0245.2759.0503.3889.1133.2236.37.2455.6047.2765.3644.0391.7434.0421,1.1332.0423.5419-.006,1.0886.0554,1.6196.1418.4297.0719.8717.1629,1.2954.2356.2617.0412.5092.0823.7598.0647.1368-.0073.2842-.0361.3866-.1297.2166-.1999.736-.6801.9361-.8752.0569-.0555.1345-.1638.1544-.2011.3206-.6015-.6817-.8174-1.1921-2.1047h0ZM87.6514,16.3222c-.5964.2773-1.5879.1838-1.9963-.3116-1.3377-1.4966.0379-6.624.6078-8.6293.4999,1.3555.8915,3.1734,1.1853,4.6989.2044,1.1556.3567,2.045.3558,3.0894-.0085.3891-.045.7718-.1504,1.1375l-.0023.0149ZM69.2341,2.2344c-.1008-.1721-.4669-.1108-.93-.033-.4308.0722-.9678.1633-1.5411.1159-.9177-.0758-1.29-.0263-1.4175.1222-.0467.0421-.0674.1051-.0674.1051l-.4083,1.5527c-.0174.071.0027.1448.0174.2159.0059.0231.0108.0458.0148.0691.162.8276.2406,1.6668.2935,2.527.0801,1.3419.1047,2.3721.1242,3.9072.012,2.448-.1051,4.6929-.709,6.9661-.6065,1.5154-1.2643,1.9934-1.4497,1.9934-.3729,0-2.6661-1.9769-2.5785-10.3537.029-2.7739.1164-4.8203.2386-5.925.0404-.3656.0696-.6297.0696-.7696,0-.0959-.0145-.1497-.0484-.1797-.1031-.091-.4256-.019-1.1308.0803l-.3373.0472c-.6698.0929-1.1725.0161-1.5395-.0398-.1722-.0263-.7719-.2005-.8781.0475,0,0-.0357.0152-.0492.2228l-.0865.6348-.1054.7737c-.0027.0806.0245.1301.058.2092.1015.2169.1276.4501.1673.6972.0811.5152.1124,1.0624.1173,1.5987.0087,2.0489-.0027,3.7763.041,5.6263.0546,2.2539.2536,4.5096.6227,6.7338.5152,3.0518,1.7431,5.3065,5.2645,5.2825,1.5405.0122,2.9786-.5228,3.8152-1.8754,0-.0001.0001-.0002.0002-.0003.1631-.2586.3012-.5329.4187-.8153.0003-.0006.0006-.0011.0008-.0017.1164-.2812.3505-.847.4668-1.1281-.0161.0391-.0343.0769-.0513.1155.5936-1.3896.7328-3.0933.8799-4.555.445-4.4209.4805-8.3429.4875-10.8901.0037-1.3973.1362-2.111.2156-2.5374.0545-.2944.0794-.4286.0143-.5397v-.0003ZM78.6482,18.3764c-.1447-.0319-.3767.2027-.6903.5376-.2205.2356-.4949.5288-.824.818-.693.6091-1.6965.9279-2.3054.8841-.1731-.0125-.2943-.0585-.3606-.1364-.4233-.4976.0945-15.3014.1005-15.4505.0566-1.3875.1561-2.123.2543-2.6163.0692-.3482.1064-.5194.0429-.5978-.1099-.1351-.4814-.0256-.9095.0772-.3747.09-1.2649.1971-2.577.1974-.4742,0-.7749-.0028-.8888.1058-.0495.0206-.0944.1121-.0944.1121l-.3031.8922-.2262.6659c-.0152.0707-.0174.1247-.0044.2025.1277.6125.2738,1.1973.3388,1.8398.0768.7538.1054,1.6951.1392,2.5221.0914,2.7894.1593,5.7176.0805,8.4995-.0893,1.8517-.1724,3.7825-.5514,5.5921-.1149.1309-.2722.2843-.2986.4176-.0689.1427-.3849.7967-.4592.9515-.0336.0692-.049.1367-.0428.2072.0263.2267.2156.2851.418.3035.288.0219.5803-.0072.8753-.0343.4185-.0486.8562-.0741,1.2864-.0963,1.2128-.0631,2.3342-.0875,3.5394.108.2726.0425.5741.0965.9169.1648.1709.0301.3376.1052.5114.0726.1706-.0187.2948-.1682.3877-.3056,0,0,.6238-.9543.5754-.903.8729-1.1645,1.308-4.9118,1.0689-5.0314h0ZM44.3424,23.5399v-.0003l-.081-.9832c.0001-.0267-.4619-1.3527-.7077-2.2448-.4955-1.695-2.0953-10.3913-2.6186-13.8975-.0297-.5198-.0115-1.0429.1158-1.5444.0433-.1848.1139-.3584.1654-.5369.0001-.0006.0003-.0014.0006-.002v-.0002s0-.0002.0001-.0005c.0056-.0223.0097-.041.0123-.0622,0-.0003.0001-.0008.0002-.0011v-.001c.0016-.0124.0023-.0248.0019-.0371-.0001-.0027-.0002-.0053-.0003-.0079-.0001-.0025-.0003-.0051-.0007-.0076v-.0002l-.1763-1.5865c-.0026-.0278-.0064-.0334-.0213-.0582-.0767-.1273-.5856-.0302-1.175.083-.6285.1204-1.4144.2798-2.2367.2934-.926.0157-1.7661-.1771-2.3779-.3142-.549-.1055-1.3595-.4426-1.0476.3725l.1953.9183c-.1878,2.9632-1.7507,10.9759-2.3977,14.4762-.342,1.7239-.7989,2.7557-1.1017,3.4384-.2397.5412-.374.8455-.2865,1.0976-.01-.0125.3892,1.0338.3892,1.0338.0141.0223.03.0436.0467.0643.0465.029.0922.0528.1506.0581.2393.0408.4894-.0098.7335-.0378.3833-.0538.7723-.12,1.1613-.1465.6216-.0363,1.2454.0236,1.866.0439.2107.0061.4357.0122.6414-.0135.0875-.0153.162-.0222.2222-.0799.0091-.0108.016-.0233.0219-.0365,0-.0003.0002-.0006.0003-.0009.0103-.0232.0174-.048.0228-.0733.0002-.0011.0006-.0023.0008-.0034.0338-.1774.0297-.3566.0269-.5379v-.0021c-.0353-1.2493-.2984-2.5028-.3315-3.7469v-.0021c.002-.0459.0058-.0838.012-.115.0061-.0309.0142-.0542.0247-.0699,0,0,0-.0001.0001-.0002.0327-.0528.0842-.0866.1473-.0967.0877.0039.1557.0647.2299.1109.1214.0834.2752.1765.4224.2385.578.2415,1.2912.2948,1.9085.1759.4168-.0825.7702-.2423,1.107-.4625.0994-.0573.1877-.139.2978-.163.0081.7448-.135,2.9597-.0885,3.5728-.0028-.0061.1878,1.0463.1892,1.0517,0,.0007.0002.0014.0005.002.0002.0014.0006.0027.0009.0041.0005.0019.001.0037.0015.0054.0005.0016.001.0033.0016.0047.0838.2318.4917.1566.6916.1547.3033-.0231.6121-.0549.9189-.0762.6385-.0502,1.2835-.012,1.9206.0209.2093.0094.4252.021.6305.0129.0981-.0055.1884-.0096.2709-.0521h0c.0185-.0124.0356-.0262.0497-.0428.0014-.0015.0029-.0029.0042-.0044.0251-.03.0391-.0676.0435-.1064v-.0009c.0023-.0188.0026-.038.0018-.0572-.0002-.0043-.0005-.0087-.0007-.0131-.0001-.0021-.0003-.0043-.0006-.0064ZM38.4494,15.6651c-.2536.2778-.6391.4378-1.0541.4382-.5789.0098-1.0266-.44-1.2553-.9628-.0518-.7935.1029-1.5802.2387-2.3648,0-.0002.0001-.0005.0001-.0007.1975-1.0697.4272-2.1475.701-3.2007.1003-.3782.2036-.7559.3389-1.1198.0403-.1027.0811-.2081.1412-.2973.0196-.0272.0389-.0511.0678-.0584h0c.0202-.0003.0398.0083.0562.0205.1221.129.2104.433.2795.624.1135.3414.2428.7963.3733,1.3051.2039.796.3916,1.6329.5472,2.4408.1878,1.1726.1002,2.6774-.4343,3.1759h0ZM54.1519,3.2217c-1.2142-.8212-2.9127-1.0881-4.4156-.771-4.3636.7545-6.1898,6.5412-5.8004,10.6186-.0006-.0081.0007.0082,0,0,.0333.4371.0666,1.1038.1063,1.537.0692.7873.2071,1.5611.4266,2.3132.2607.8754.633,1.6978,1.0496,2.4992,1.0563,1.9773,2.5119,3.8115,4.5871,4.7385.3757.152.7943.3008,1.1967.2306.526-.1215.9773-.4473,1.4035-.7724,1.3792-1.1277,2.4867-2.6937,2.8317-4.4633.0643-.341.1379-.8891.1938-1.2313.2689-2.1093-.1077-3.4054-.9135-3.8221-.0328.2757-.0338.458-.092.8447.0382-.2891.0633-.5563.092-.8447-.0435.3479-.0923.768-.1363,1.1198-.3013,1.8386-1.5998,4.5758-3.3589,4.6328-2.1062-.1582-3.5646-4.8205-3.6177-7.9926.0786-2.0994.4654-5.4939,3.1962-5.4929,1.3397.0196,1.8821,1.346,1.9236,2.5325-.0289.1355-.0946.36-.0855.4446-.0043-.0192-.0039-.0397-.0024-.0611l-.1117,1.3949c-.001.0324-.005.0736.0238.0946.1929-.043.3495-.1449.5677-.2518.3354-.1769.686-.3766,1.0269-.5759.3446-.2018.7161-.4264,1.0382-.6314.2028-.1303.4103-.2632.566-.3867.0253-.0215.0446-.0345.0581-.0627.0001-.0002.0002-.0003.0005-.0006.0001-.0002.0002-.0007.0003-.001.0089-.0165.0149-.0345.0212-.0524.0074-.0235.0138-.0476.0191-.0728,0-.0007.0002-.001.0005-.0017.0063-.0302.012-.0628.0159-.094v-.0008c.0329-.247.1433-1.0737.1743-1.3059.1601-.9099-.1669-2.8495-1.9855-4.1117h0ZM30.4175,20.4774c-.0019-.0141-.0054-.0286-.0094-.0416-.0016-.0053-.0034-.0105-.0053-.0157-.0006-.0017-.0012-.0034-.0019-.005l-.3948-1.0703c-.0045-.0171-.0502-.0588-.0586-.0728,0,0-.2793.1268-.4664.2858-.2253.1953-.4943.4216-.808.5025-.6052.2187-1.522-.935-2.0826-2.1714-.0834-.2554-.1603-.5263-.1477-.7935.0001-.0016.0002-.0032.0005-.0047.0083-.0996.0329-.1927.0978-.263,1.7761-1.1463,3.3166-2.3265,3.6719-4.5451h0c.1338-.7926.1363-1.6292.0616-2.4276,0-.0009,0-.0019-.0001-.0028-.0286-.2123-.0497-.4317-.0829-.6396-.069-.3932-.1558-.782-.2663-1.163-.0005-.0017.2315.8732-.0015-.005s-.597-1.8466-.597-1.8466l-.001.001c-.6863-1.8847-1.8739-3.1816-2.7195-3.7173-.8988-.6431-1.4302-.3988-2.2134-.2105-1.404.2586-4.6573.1401-6.2802-.4888-.5191-.1637-.943-.3136-1.2758-.3136-.1792,0-.3176.0433-.4012.1506-.142.1828-.0484.3526.1684.6728l.6162,1.3234c.0914.1839.2133.3504.3319.522.1582.7278.2163,1.8277.2416,3.0719.0554,2.2627.055,5.9859-.0862,10.4711-.1374,4.123-.5538,5.4214-.7114,5.7822-.037.0843-.0636.2022.0028.3-.0188-.0194.6771.9957.6771.9957.0009.0014.0019.0026.0028.0039.0009.0014.0019.0026.0029.0039.3776.377,1.4215-.0098,1.9147-.0555.5624-.0817,1.1193-.0967,1.6705-.0932.1929.0001.4014.0044.5872-.0096.1247-.0081.2273-.029.3124-.1129.0297-.0285.0575-.059.078-.0952.0002-.0003.0005-.0005.0007-.0008.0001-.0002.0001-.0006.0003-.0008.0837-.1442.079-.3129.0625-.4755v-.0019c-.0408-.313-.1397-.6184-.2446-.9173v-.0003c-.1841-.5787-.2324-1.2003-.2881-1.8053,0-.001,0-.002-.0002-.003-.0365-.4826-.0592-.9773-.062-1.4581.0092-.2828-.0191-.5723.0573-.8408.0001-.0005.0003-.0008.0005-.0011.0143-.037.0335-.0737.0557-.1091.1742-.2618.4574-.4333.732-.5767.2522-.1273.5138-.2426.7857-.3107.0003,0,.0009-.0002.0012-.0003.0227-.0038.0454-.008.0683-.0061.1007.2771.2216.61.3755,1.0259.3034.7779.6927,1.5866,1.1089,2.3032-.1871-.3198-.3693-.6577-.5406-1.0049.5347,1.0849,1.1088,2.3225,1.8539,3.2667.3142.3907.7484.9097,1.2246.9827.4053.0551.7834-.0275,1.0822-.3326.3422-.3373.6291-.788.9174-1.1911.0001,0,.0001-.0002.0002-.0003.4452-.6582.8327-1.3841.9744-2.1706.0105-.0683.0166-.1372.0156-.2051v-.0041c-.0006-.0236-.002-.0467-.0051-.0691-.0008-.0053-.0018-.0103-.0027-.0156h-.0005ZM25.0008,21.3967c-.0094-.0156-.0186-.0319-.0281-.0476.0113.0191.0226.0381.0338.0571-.0019-.0032-.0039-.0062-.0059-.0095h.0001ZM23.8111,13.4094c-.3342.161-1.3886.6794-2.0732.7421-.0559-2.1138-.0259-4.253.0791-6.3655v-.0017c.0127-.2156.0274-.4298.047-.6403,0-.0005,0-.0009.0001-.0014.0159-.147.0325-.3438.0732-.4699,0-.0002,0-.0005.0002-.0007.0065-.0177.0132-.0297.0198-.0356h0c.1218-.0725.2937-.0916.4534-.1146.3386-.0435.6914-.0474,1.0481-.0229,1.1175.0759,2.3398.4805,2.9828,1.4554.524,3.1805-1.0779,4.8005-2.6308,5.4551h.0002Z"/>
  <g>
    <path class="st1" d="M94.1128,22.6671c-.2451-.582-.3962-1.1299-.5546-1.843-.4752-2.1394-.9126-5.0874-1.52-8.725-1.072-6.4195-.84-9.0705-.7375-9.7805.0989-.6827.5407-1.0436.7414-1.4391.2378-.4687.0339-.7268-.1766-.7879-.2375-.0689-.5909.2309-1.2973.4822-.8063.2868-2.0933.5628-3.7798.7489-1.6846.1858-2.5569.0799-3.0782.0167-.4437-.0541-.6095-.074-.8148.1369-.1118.115-.0547.2548.1275.6418.1902.404.2196.5969.0989,1.7239-.1338,1.2452-1.0844,7.8591-2.0029,12.5325-.7448,3.788-1.4124,5.7914-1.8652,6.5744-.1462.2528-.3371.3651-.1911.6458.1653.3178.8455.1966,1.7869.1966.7485,0,1.5526.1085,2.1987.1958.7422.1,1.3685.1175,1.4833-.0219.1572-.1909.1127-.5618.0514-1.1932-.0904-.9267-.2269-2.3271-.0386-4.341l.0108-.1153.0841.0825c.5104.5015,1.3318.7926,2.2537.7988h.0301c.9558,0,1.8444-.3051,2.3819-.8188l.0813-.0776.0127.1096c.147,1.2411.0111,3.2933-.0787,4.6511-.0458.6893-.1413,1.0311-.0245,1.1936s.0815.3348,1.8295.3249c2.1423-.0121,4.0821.9946,4.2211.0612.0803-.5387-.7022-.7122-1.2337-1.9742h-.0001ZM88.1187,15.9821c-.3032.3158-.7134.4759-1.219.4759h-.0056c-.508-.0011-.9094-.1598-1.1932-.4713-.5574-.6122-.6967-1.8051-.438-3.7542.365-2.7503,1.3431-6.4503,1.6818-6.6966.0299-.0218.0568-.0231.0737-.0209.3314.0488,1.5,4.8862,1.7144,7.4769.1191,1.4356-.0876,2.4416-.6138,2.99v.0002ZM54.1898,3.2112c-.8903-.5962-2.0576-.918-3.2341-.918-.4213,0-.8435.0413-1.2548.1259-1.1517.237-2.7806.9216-4.0002,2.8365-2.201,3.4569-2.1992,8.2614-1.0597,11.2207.9712,2.5221,2.4646,4.6524,4.0975,5.8445.448.327,1.581,1.0855,2.4549,1.0855h.0098c1.073-.0071,4.1416-2.5423,4.5625-5.7016.2748-2.0622-.2579-2.9925-.6001-3.3634-.1654-.1796-.3108-.2546-.3727-.2742-.006.0403-.0131.1116-.0204.186-.0239.2431-.064.6501-.1677,1.1836-.3468,1.7912-1.5945,4.334-3.2826,4.3787-.4053.0087-.8492-.2309-1.2807-.6986-1.5039-1.6299-2.7912-5.773-2.2147-10.2406.4282-3.3185,1.9065-4.0299,3.0944-4.0299.0184,0,.037.0002.0555.0006,1.1566.0214,1.8936,1.0017,1.9715,2.6222.0365.7642-.0849,1.2706-.1574,1.5732-.0439.1832-.0759.3156-.0312.3467.2135.0308,2.9988-1.6263,3.3238-1.9352.0614-.0583.1284-.3647.0851-.8635-.0445-.5117-.3186-2.2675-1.9785-3.3792h-.0002ZM77.958,18.914c-.2205.2356-.4949.5289-.824.818-.693.6091-1.6965.9279-2.3054.8841-.1731-.0125-.2943-.0585-.3606-.1364-.4233-.4976.1451-15.3012.1511-15.4504.0566-1.3875.1253-2.1197.2235-2.613.0691-.3482.1073-.5398.0438-.6182-.1099-.1351-.5055-.024-.9336.0788-.3747.09-1.2664.1956-2.5786.1958-.5057,0-.8219.0256-.9064.1365-.0775.1061-.0412.2651.0381.6132.0728.3204.1832.8046.2687,1.5512.1403,1.2232.319,8.4595.1665,11.6665-.1099,2.311-.3629,5.0897-.7431,5.9577-.1191.2717-.2973.4741-.4547.6525-.2457.2787-.2381.4615-.1344.6088.1378.1957.6518.1735,1.543.0749.3589-.0397,1.7106-.106,2.0049-.1091,1.1677-.0126,1.8737-.0202,3.5766.3218.4685.0941.7447.3255,1.2127-.8278.6202-1.5282.9228-4.255.7169-4.3715-.1447-.0319-.3918.2315-.7054.5665h.0003ZM68.3042,2.2012c-.4308.0722-.9678.1633-1.5411.1159-.9177-.0758-1.29-.0263-1.4175.1222-.0622.0722-.0409.1723-.0165.2882.0065.0311.0132.0624.0183.0932.0106.0661.0247.1427.0414.2328.1403.7598.332,2.3401.3627,6.3824.0639,8.41-2.2176,10.3399-2.5904,10.3399s-2.6542-1.9769-2.5666-10.3537c.029-2.7739.1226-4.8281.2448-5.9329.0404-.3656.0696-.6297.0696-.7696,0-.0959-.0145-.1497-.0484-.1797-.1031-.091-.4566-.0412-1.1618.0582l-.3373.0472c-.6698.0929-1.1725.0161-1.5396-.0398-.1722-.0263-.759-.1705-.8652.0775-.0627.1463.0962.251.1636.6526.0645.3847.1672.965.1696,1.9784.0108,4.8469-.0431,7.0987.3609,10.5618.4601,3.9437,1.0615,7.5864,5.6714,7.5864s4.8837-4.1712,5.1947-7.2607c.445-4.4209.4807-8.3429.4875-10.8901.0037-1.3972.1362-2.111.2156-2.5374.0545-.2944.0794-.4286.0143-.5397-.1008-.1721-.4669-.1108-.93-.033h0ZM29.9469,19.2577c-.1217-.0246-.2927.1202-.4879.2891-.2253.1953-.4808.4164-.7944.4973-.5292.1376-1.1653-.4653-1.8845-1.7919-.276-.5088-1.1451-2.2023-.749-2.6283,2.4095-1.5829,3.9726-2.8834,3.8471-6.4745-.1463-4.19-2.5236-6.2066-3.2486-6.725-.8025-.5737-1.3247-.4395-1.9855-.2698-.0803.0205-.162.0416-.2459.0617-.8932.2141-3.7661.1379-5.0392-.1335-.4207-.0896-.8318-.2194-1.2292-.345-.5191-.1637-.9921-.3131-1.3249-.3131-.1792,0-.3176.0432-.4012.1506-.1715.2208.0449.5289.3443.9556.2387.3399.536.7631.7127,1.2711.2426.6969.2682,1.9521.2978,3.4055.0042.2048.0082.413.0132.6235.0381,1.6313.0331,5.8942-.0993,9.8636-.1374,4.123-.5186,5.4076-.6763,5.7684-.0395.09-.0686.2185.0162.3196.0923.1099.3885.262,1.3334.0477.9386-.2131,1.767-.2098,2.369-.2079.3796.0018.6795.0025.785-.0605.2788-.1668.3723-.4919-.0228-1.5962-.327-.9129-.4291-3.4965-.3493-4.1014.082-.6209,1.4107-1.098,1.6369-1.1399.2095-.0388.2435.0519.6516,1.1747.0989.2722.2205.6072.373,1.0189.8227,2.1086,2.2753,4.4476,3.1873,4.5479.8881.0974,1.1527-.2845,2.0303-1.5501l.0094-.0134c.7821-1.1279,1.1026-2.2889.9795-2.5927-.0186-.0461-.0408-.0506-.0481-.0522l-.0003.0002ZM21.6689,14.1576c-.1984.0094-.364-.0608-.4474-.1824-.0602-.0876-.0563-.1656-.0743-.3457-.1612-1.6095-.0797-8.3092.1416-8.5039.1479-.1301,1.6106-.3395,2.9893.1525,1.3539.4832,2.0669,1.516,2.2012,2.9761.2875,3.1269-1.178,4.4372-2.6683,5.1551-.3454.1664-1.4615.7162-2.1421.7482ZM5.2796.7783c-.4643-.0317-.8651-.0596-1.18-.1017-1.0635-.1421-1.3946-.3271-1.7744-.5351-.2281-.1248-.5057-.2403-.7112-.007-.2337.2653.0957.9548.491,1.5672.1015.1568.1978.3061.278.4394.4345.7228.5146,3.1288.5356,5.387.0212,2.2725.0918,13.6608-.3417,14.7969-.2504.6562-.6545.9342-1.4828,1.4613-.3892.2477-.5289.5919-.3992.8414.125.2406.4561.4588,1.2415.1977.9762-.3244,2.089-.275,3.2668-.2227,1.8952.0846,4.044.1797,6.187-1.2762,3.6712-2.4944,4.3782-5.828,4.5839-8.4534.2736-3.493.3326-7.1928-2.1576-10.6553C11.6552,1.2131,7.6641.9409,5.2796.7783ZM7.4509,21.3094l-.0211.0089c-.0519.0222-.1212.0519-.1917.0519-.0357,0-.0718-.0077-.1059-.0278-.0859-.051-.1323-.1675-.1418-.3567-.3187-6.3996-.0651-14.2491.0204-16.5025.0085-.2172.0143-.3715.1195-.4556.0665-.0533.1635-.0689.3044-.0492.2017.0284,4.9384.7721,5.131,7.474.182,6.3452-1.9131,8.5295-5.115,9.857h.0001ZM43.5536,20.3116c-.5595-1.9136-2.5267-12.7525-2.7629-14.9699-.1496-1.408.0734-2.064.1934-2.4164.0697-.2049.0961-.2913.0448-.3765-.0767-.1273-.5856-.0302-1.175.083-.6285.1205-1.4105.2705-2.2329.2841-.926.0157-1.7672-.1721-2.379-.3092-.3475-.0779-.6428-.144-.8331-.144-.0754,0-.1342.0103-.1734.0344-.178.1094-.1335.2677-.0239.587.0764.2232.1716.5009.1603.8208-.0142.3947-.1829,2.0763-.5918,4.5021-.3876,2.2967-1.3428,7.7522-1.787,9.9908-.342,1.7239-.7989,2.7557-1.1016,3.4384-.2464.5561-.3821.8623-.2794,1.1185.0858.2142.5687.1432,1.1805.053.2505-.0369.5344-.0788.8293-.1065.4588-.043,1.0304-.0136,1.5344.0121.6069.0315,1.2346.0637,1.3763-.0622.1934-.1717.014-1.7169-.1168-2.8452-.1289-1.1105-.1975-1.7452-.1113-1.8755.0232-.0354.0617-.084.1227-.0959.0771-.0153.1521.0346.2636.1103.2023.1372.5406.3668,1.2389.456,1.2617.1612,1.9918-.3156,2.3427-.5445.1645-.1076.255-.1669.3239-.107.1557.1343.1229,1.2512.055,2.9399-.033.8258-.0674,1.6797-.0232,1.8041.0763.2156.3909.1876,1.0781.1264.1916-.017.4104-.0365.6595-.0537.5787-.0396,1.1912-.0077,1.6835.018.5304.0276.9882.0513,1.1111-.0303.1778-.1188.1149-.3209-.1308-1.0035-.1241-.3447-.294-.8169-.4756-1.4381l-.0003-.0003ZM38.4146,15.6246c-.2486.2698-.5814.4115-.9889.4215-.012.0003-.0237.0005-.0357.0005-.3553,0-.661-.1306-.9093-.3882-.481-.4991-.7065-1.446-.6189-2.5979.1096-1.4438,1.1605-6.3817,1.4924-6.4259.016-.0018.041-.0003.0683.0215.3381.2715,1.4045,4.7474,1.5211,6.3857.0883,1.2372-.0896,2.1063-.5288,2.5829h-.0001Z"/>
    <path class="st0" d="M7.6279,21.7301l-.0183.0078c-.0724.031-.2072.0888-.3715.0888-.1201,0-.2371-.0317-.3387-.0918-.2244-.133-.3469-.3774-.3645-.7264-.1221-2.4506-.1603-5.1122-.1564-7.5929-1.0047.0887-2.0012.1807-2.99.2757-.0202,3.8366-.1072,8.0671-.3856,8.7964-.3001.7868-.8022,1.1354-1.6641,1.6838-.1936.1232-.2351.2387-.2394.246.0303.058.1317.0701.2115.0701.1297,0,.2915-.032.4813-.095.5911-.1965,1.2516-.2841,2.1411-.2841.4225,0,.8634.0196,1.2897.0386.4483.02.9118.0407,1.3817.0407h.0002c1.3379,0,2.9221-.1471,4.5282-1.2384,3.5107-2.3851,4.1878-5.588,4.3855-8.1116.0552-.7048.1011-1.4182.1187-2.1358-.8746.058-1.7443.1183-2.6091.1807-.09,4.0566-1.2176,7.1132-5.4006,8.8477h0ZM94.6469,24.2598c-.2589-.2756-.65-.6917-.9545-1.4155-.2682-.637-.4259-1.2287-.5795-1.9212-.3574-1.6086-.6977-3.6964-1.0916-6.1139-.063-.3872-.1279-.7854-.1946-1.1924-.8659-.0814-1.738-.1603-2.616-.237.0541,1.3484-.1996,2.3315-.7626,2.9184-.3873.4031-.9225.6162-1.5552.6162-.6322-.0016-1.1612-.216-1.5294-.6203-.5711-.6271-.7761-1.6567-.6435-3.2819-.8261-.0631-1.657-.1241-2.4923-.1831-.2142,1.2559-.4385,2.5016-.6609,3.6335-.6529,3.3202-1.3338,5.7049-1.9179,6.7148-.0361.0625-.0742.1183-.1109.17.058.0059.1401.0105.257.0105.1276,0,.2694-.0047.4231-.0097.1934-.0062.4051-.0131.6315-.0131.7794,0,1.6001.1108,2.2597.1999.3627.0489.6772.0748.9086.0748.0698,0,.1232-.0024.1641-.0054.0087-.1546-.0194-.443-.045-.7037l-.008-.0841c-.0922-.9433-.2312-2.3686-.0388-4.4274l.0993-1.0706.7696.7544c.4268.4192,1.1329.6627,1.9393.668h.0249c.8405,0,1.613-.2586,2.0669-.6926l.7425-.7077.1199,1.0163c.1515,1.2789.0147,3.3506-.0767,4.7351-.0144.219-.0338.4039-.0502.5599-.0153.1454-.0324.308-.0292.381.0009.0012.0018.0026.0027.0038.0833.0292.3656.0876,1.287.0876l.1776-.0006c.8831,0,1.7302.1619,2.4108.2919.4675.0893.8712.1664,1.1464.1664h.0002c.0931,0,.1468-.0094.1744-.0167h.0002c-.0069-.0479-.1527-.2029-.249-.3057h0ZM43.1155,20.4397c-.3196-1.0937-1.0968-5.0857-1.7518-8.7375-.7161.0091-1.43.02-2.1421.032.0931.5397.1568.9922.1769,1.2751.0989,1.387-.1132,2.3437-.6482,2.9244-.3307.3592-.7851.5557-1.3124.5687l-.0479.0006c-.477,0-.9052-.1825-1.238-.5279-.5795-.6014-.8443-1.6488-.7454-2.9491.0218-.2862.0799-.7121.1636-1.2168-.643.0156-1.2838.0326-1.9233.0505-.4221,2.4089-.9201,5.1844-1.2064,6.6267-.3521,1.775-.8214,2.8338-1.132,3.5345-.0936.2112-.2029.4581-.2513.6162.1746-.0082.416-.0439.6729-.0817.2547-.0374.5435-.0799.8492-.1088.1714-.016.3632-.0238.587-.0238.3373,0,.6952.0183,1.0136.0344.2638.0139.5366.028.7616.028.0945,0,.1657-.0027.2195-.0061.0245-.4955-.1228-1.7667-.1986-2.4211-.1847-1.5927-.2063-1.9269-.039-2.1794.1324-.2005.2995-.2697.4149-.2922.039-.0077.0778-.0115.1168-.0115.2088,0,.359.1018.4918.1919.1794.1217.4503.3056,1.0406.3809.1504.0193.2988.029.441.029.8233,0,1.3055-.3147,1.5945-.5031.1682-.1099.3136-.2049.5108-.2049.1346,0,.2596.0469.3603.1346.2935.2529.3193.6543.2123,3.325-.0192.475-.0459,1.1438-.0434,1.4787.144-.0014.3474-.0195.6025-.0423.194-.0173.4163-.037.6687-.0543.1938-.0132.3987-.0196.6261-.0196.3991,0,.7947.0206,1.1124.0372.2492.0131.4846.0253.6665.0253h.016c-.0425-.1351-.1047-.3074-.1555-.4486-.1255-.3485-.2974-.8259-.4843-1.4646h0ZM28.5142,20.5196c-.6986,0-1.3771-.6512-2.1354-2.0499-1.332-2.4576-.8599-2.9654-.682-3.1565l.0377-.0404.0461-.0302c1.5184-.9975,2.6433-1.8465,3.218-3.2313-.9751.0365-1.9453.0761-2.9111.1182-.4883.6942-1.1774,1.257-2.0783,1.691l-.0397.0191c-.7121.3439-1.6148.7426-2.2789.7739-.0192.0008-.0379.0012-.0566.0012-.3346,0-.6222-.1388-.7886-.381-.1178-.1717-.1317-.3289-.1453-.481l-.0071-.0778c-.0298-.2971-.0507-.7461-.0647-1.2761-.8009.0442-1.5983.0902-2.3918.1381-.0161,1.6148-.0497,3.4222-.1081,5.1728-.1217,3.6492-.4343,5.1529-.6502,5.7707.0198.001.0417.0017.066.0017.1816,0,.4174-.0327.7004-.0967.8506-.1931,1.5999-.2199,2.2833-.2199l.3563.001c.1938,0,.3262-.0045.3953-.0134.0141-.0577.0331-.2911-.2324-1.0337-.3534-.9869-.4581-3.6629-.3721-4.3149.1374-1.0418,1.9877-1.5255,2.0059-1.5288.053-.0098.1011-.0145.1461-.0145.4791,0,.5932.314,1.0179,1.4823.0985.2713.22.6055.369,1.0088.9072,2.3249,2.2563,4.199,2.8119,4.26.0691.0076.1333.0118.1936.0118h.0002c.4287,0,.6064-.2066,1.421-1.3817.3734-.5386.6165-1.0585.7594-1.4604-.1778.1275-.3819.2422-.6206.3037-.0865.0226-.1756.0338-.2652.0338ZM54.5419,17.1959c-.7085,1.4846-1.7281,3.0367-3.2099,3.076l-.0312.0003c-.5327,0-1.0843-.2925-1.5947-.8457-1.5715-1.7032-2.3416-4.8504-2.4487-7.7659-.9737.0014-1.9442.0054-2.9116.0123-.0416,1.719.2279,3.3588.721,4.6397.9408,2.4426,2.3771,4.4982,3.9409,5.6398.8557.6247,1.6727.9977,2.1858.9977h.0082c.8369-.0081,3.7246-2.401,4.1116-5.3055.1709-1.2822.0078-2.0647-.1896-2.5215-.0198.1242-.2829,1.4467-.5818,2.0728ZM77.4354,20.0749c-.6714.5897-1.6957,1.0016-2.4914,1.0016h-.0007c-.0508,0-.0998-.0018-.1477-.0052-.2992-.0218-.5263-.1212-.6751-.296-.1769-.2081-.3775-.444-.194-8.1624.0024-.0972.0047-.1943.0071-.2912-.8226-.0428-1.649-.0837-2.4788-.1224.0055,1.4762-.0098,2.8638-.0573,3.8626-.0543,1.1411-.2709,4.9544-.781,6.119-.1473.3366-.3585.5765-.5286.7693.0247.0009.0523.0015.0833.0015.2542,0,.6132-.036.931-.071.3788-.0419,1.7499-.1086,2.0502-.112.2088-.0023.4031-.0044.5909-.0044.9156,0,1.6777.0533,3.0803.3351.0602.0121.1175.026.1727.0396.0689.017.1401.0345.1774.0355.0272-.0201.1488-.1315.3501-.6271.3991-.9827.6379-2.3968.7189-3.2695-.2179.2327-.4843.5131-.8071.797h-.0002ZM63.9198,19.8134c-.2759.2778-.531.4188-.7587.4188-.225,0-.477-.1392-.7489-.4141-.6244-.6309-1.9712-2.6072-2.2318-8.0149-.7916-.0187-1.5859-.0357-2.3827-.0509.0454,1.337.1335,2.5905.3062,4.0707.4905,4.2059,1.1518,7.1829,5.2179,7.1829,4.0603,0,4.407-3.4921,4.713-6.5729l.0276-.2771c.1435-1.4242.2438-2.8035.3145-4.091-.7391-.0298-1.4814-.0577-2.2259-.0843-.2924,5.2794-1.6156,7.2122-2.2313,7.8328h0Z"/>
  </g>
</svg>